<svg width="198" height="54" viewBox="0 0 198 54" fill="none" xmlns="http://www.w3.org/2000/svg">
<path d="M71.2105 35.6055H65.9541V20.8342C65.9589 18.4745 64.0514 16.5554 61.6913 16.5457H61.5516C59.1915 16.5554 57.2849 18.4745 57.2898 20.8342V35.6055H52.0324V20.8342C52.0205 15.563 56.2794 11.2785 61.5516 11.2559H61.6913C66.9634 11.2785 71.2213 15.564 71.2105 20.8342V35.6055Z" fill="#47C6F3"/>
<path d="M85.1324 35.6055H79.874V20.8342C79.8799 18.4746 77.9724 16.5554 75.6122 16.5457H75.4725C73.1124 16.5554 71.2047 18.4736 71.2098 20.8342V35.6055H65.9542V20.8342C65.9424 15.563 70.2012 11.2785 75.4735 11.2559H75.6132C80.8853 11.2785 85.1442 15.563 85.1333 20.8342L85.1324 35.6055Z" fill="#1D9DD9"/>
<path d="M65.9542 20.8342V35.6055H71.2107V20.8342C71.2137 18.379 70.2731 16.0175 68.5829 14.236C66.8928 16.0175 65.9522 18.379 65.9542 20.8342Z" fill="#1B75BA"/>
<path d="M64.7095 2.34367C66.2836 4.04919 66.1851 6.70041 64.4901 8.26418C62.7939 9.82891 60.1436 9.71326 58.5686 8.0072C56.9946 6.30074 57.0929 3.65006 58.789 2.08574C60.4841 0.521968 63.1354 0.63721 64.7095 2.34367Z" fill="#47C6F3"/>
<path d="M76.2408 1.06107C78.532 1.4337 80.0894 3.5821 79.7185 5.8592C79.3477 8.13521 77.1891 9.67887 74.8979 9.3057C72.6067 8.93198 71.0493 6.78466 71.4202 4.50757C71.791 2.23156 73.9496 0.688305 76.2408 1.06107Z" fill="#1D9DD9"/>
<path d="M106.003 35.6055H100.746V20.8342C100.751 18.4736 98.8437 16.5554 96.4826 16.5457H96.3429C93.9827 16.5554 92.076 18.4746 92.0811 20.8342V35.6055H86.8246V20.8342C86.8128 15.564 91.0716 11.2785 96.3429 11.2559H96.4826C101.755 11.2785 106.013 15.563 106.003 20.8342V35.6055Z" fill="#8AC440"/>
<path d="M119.925 35.6055H114.667V20.8342C114.672 18.4745 112.766 16.5554 110.404 16.5457H110.265C107.905 16.5554 105.998 18.4746 106.003 20.8342V35.6055H100.746V20.8342C100.735 15.564 104.993 11.2785 110.265 11.2559H110.404C115.677 11.2785 119.935 15.563 119.925 20.8342V35.6055Z" fill="#36B24A"/>
<path d="M100.746 20.8342V35.6055H106.003V20.8342C106.006 18.379 105.065 16.0175 103.375 14.236C101.685 16.0175 100.744 18.379 100.746 20.8342Z" fill="#009247"/>
<path d="M97.2929 0.762403C99.5655 1.23641 101.026 3.45059 100.556 5.70894C100.085 7.96674 97.8607 9.41336 95.5881 8.93935C93.3144 8.46616 91.8545 6.25117 92.3248 3.99282C92.796 1.73502 95.0203 0.288393 97.2929 0.762403Z" fill="#8AC440"/>
<path d="M113.308 1.89356C114.95 3.53425 114.958 6.18738 113.327 7.81788C111.696 9.44987 109.043 9.44076 107.401 7.79912C105.759 6.15762 105.751 3.5049 107.382 1.87386C109.013 0.242816 111.666 0.251922 113.308 1.89356Z" fill="#36B24A"/>
<path d="M3.95734 13.5393C6.14336 11.5404 9.02786 10.4804 11.9881 10.5884C16.3385 10.5884 19.5181 11.9063 21.527 14.5426C22.5561 15.8153 23.1798 17.3686 23.3156 19.0002H17.8574C17.6115 18.0473 17.154 17.1611 16.5194 16.4085C15.3645 15.3 13.7934 14.7342 12.1966 14.8514C10.3944 14.7828 8.67366 15.604 7.59445 17.0478C6.36667 18.8797 5.77542 21.0649 5.91419 23.2656C5.91419 25.9466 6.50735 27.9542 7.6938 29.2894C8.82317 30.5996 10.4799 31.334 12.2095 31.2917C13.8249 31.3978 15.3998 30.7658 16.4929 29.5722C17.1364 28.7572 17.5977 27.814 17.8456 26.8044H23.2692C22.8727 29.2841 21.6008 31.5385 19.6834 33.1595C17.5997 34.8477 14.9719 35.718 12.292 35.609C8.5743 35.6081 5.65241 34.5062 3.52444 32.3013C1.39646 30.0847 0.333017 27.0474 0.333017 23.1887C0.329076 19.0141 1.53714 15.7976 3.95734 13.5393Z" fill="#202020"/>
<path d="M46.3384 32.8159C44.3678 34.6761 41.5148 35.6055 37.7814 35.6055C34.0479 35.6055 31.1938 34.6761 29.2203 32.8169C26.5729 30.5369 25.2498 27.2513 25.2498 22.9599C25.2498 18.5816 26.5729 15.2964 29.2203 13.1021C31.1938 11.2429 34.0478 10.3135 37.7814 10.3135C41.5148 10.3135 44.3678 11.2429 46.3384 13.1011C48.975 15.2955 50.2933 18.5816 50.2933 22.959C50.2933 27.2504 48.975 30.536 46.3384 32.8159ZM42.9265 29.1845C44.3009 27.4107 44.9788 25.1957 44.8323 22.9571C44.9758 20.7213 44.298 18.5111 42.9265 16.7392C41.6328 15.2628 39.7381 14.4555 37.7773 14.5429C35.8108 14.4583 33.911 15.2619 32.6016 16.7315C31.2106 18.4971 30.5229 20.7156 30.6695 22.959C30.5229 25.2014 31.2115 27.4198 32.6016 29.1864C33.911 30.6561 35.8108 31.4586 37.7774 31.375C39.7381 31.4635 41.6328 30.6589 42.9306 29.1854L42.9265 29.1845Z" fill="#202020"/>
<path d="M141.648 13.8502C142.471 14.9117 142.903 16.2248 142.87 17.5672C142.932 18.8754 142.492 20.1583 141.637 21.1516C141.057 21.7408 140.368 22.211 139.607 22.5357C140.839 22.8979 141.918 23.651 142.682 24.6832C143.394 25.7335 143.757 26.9817 143.719 28.2498C143.736 29.6354 143.321 30.9931 142.533 32.1318C142.034 32.8874 141.394 33.5386 140.647 34.0492C139.743 34.6659 138.718 35.0818 137.64 35.2705C136.4 35.4977 135.143 35.6092 133.882 35.6001H121.885V11.2572H134.748C137.994 11.3009 140.293 12.1654 141.648 13.8502ZM127.195 15.4851V20.8538H133.664C134.638 20.8952 135.607 20.6876 136.479 20.2506C137.224 19.8073 137.645 18.974 137.561 18.1122C137.654 17.1239 137.065 16.1984 136.13 15.8645C135.106 15.5865 134.047 15.4583 132.985 15.4851H127.195ZM127.195 24.8844V31.3754H133.657C134.575 31.4167 135.492 31.2702 136.352 30.9465C137.525 30.4106 138.228 29.1902 138.101 27.9073C138.179 26.7575 137.489 25.6941 136.408 25.2946C135.554 24.9929 134.652 24.8532 133.747 24.8824L127.195 24.8844Z" fill="#202020"/>
<path d="M151.231 35.6055H145.702V11.2588H151.228L151.231 35.6055Z" fill="#202020"/>
<path d="M174.67 11.2588V15.5689H166.707V35.6055H161.109V15.5689H153.109V11.2588H174.67Z" fill="#202020"/>
<path d="M176.405 31.3107L190.01 15.5687H176.746V11.2582H196.915V15.3387L183.138 31.3107H196.954V35.6055H176.405V31.3107Z" fill="#202020"/>
<path d="M58.9322 49.6993C58.7561 49.9265 58.5573 50.1329 58.3389 50.3179C58.1039 50.5158 57.8461 50.6839 57.5707 50.8207C57.2725 50.9691 56.9567 51.0821 56.632 51.1579C56.2652 51.2424 55.8884 51.2837 55.5115 51.2799C54.9754 51.2867 54.4421 51.1954 53.9394 51.0104C53.487 50.8433 53.0747 50.5845 52.7274 50.2502C52.386 49.9178 52.1184 49.5164 51.9413 49.0735C51.7495 48.5908 51.6541 48.0736 51.661 47.5539C51.6561 46.832 51.7878 46.1168 52.0515 45.4449C52.2985 44.8115 52.6645 44.2312 53.1298 43.7346C53.5873 43.2495 54.1353 42.859 54.7422 42.5838C55.3699 42.2995 56.0516 42.155 56.7402 42.1597C57.0492 42.1597 57.3581 42.1934 57.6592 42.2592C57.9445 42.3212 58.2219 42.4114 58.4886 42.5287C58.7365 42.6377 58.9686 42.7774 59.1801 42.9455C59.372 43.0982 59.5392 43.2803 59.676 43.4829L58.4895 44.3777C58.4127 44.2668 58.3272 44.1616 58.2328 44.065C58.1176 43.9488 57.9858 43.8485 57.8432 43.7691C57.6789 43.6746 57.5057 43.5997 57.3247 43.5468C57.1162 43.4877 56.9006 43.4589 56.6852 43.4623C56.1963 43.457 55.7132 43.5703 55.2784 43.7937C54.8564 44.0098 54.4835 44.311 54.1815 44.676C53.8745 45.0486 53.6335 45.4718 53.4701 45.9261C53.2999 46.3853 53.2133 46.8714 53.2133 47.3613C53.2114 47.7047 53.2665 48.0466 53.3777 48.3723C53.48 48.6744 53.6423 48.9539 53.8529 49.1936C54.0683 49.4328 54.332 49.6225 54.6261 49.7516C54.9606 49.8953 55.3227 49.9669 55.6867 49.9601C56.5779 49.9658 57.4201 49.5518 57.9602 48.8434L58.9322 49.6993Z" fill="#202020"/>
<path d="M62.9895 51.2196C62.6058 51.2234 62.2251 51.1614 61.8621 51.0356C61.5315 50.9213 61.2265 50.7427 60.9668 50.5083C60.4425 50.0371 60.1493 49.3613 60.1631 48.6572C60.1602 48.1851 60.2447 47.7159 60.4119 47.2731C60.5733 46.8456 60.8153 46.4517 61.1252 46.1146C61.7854 45.3976 62.721 44.996 63.6959 45.0119C64.0826 45.007 64.4682 45.0699 64.8341 45.1958C65.1647 45.3091 65.4687 45.4859 65.7304 45.716C65.9833 45.9412 66.1849 46.2169 66.3235 46.5257C66.4683 46.8524 66.541 47.2043 66.5371 47.5612C66.5391 48.0386 66.4544 48.5117 66.2872 48.9593C66.1269 49.3892 65.8848 49.7845 65.5739 50.1216C65.2591 50.4622 64.8775 50.7335 64.4524 50.9194C63.9919 51.1231 63.4933 51.2243 62.9895 51.2196ZM65.0978 47.7178C65.1115 47.3143 64.9669 46.9219 64.6955 46.6242C64.4081 46.3287 64.0088 46.1727 63.5985 46.1943C63.3092 46.1895 63.023 46.2554 62.7642 46.385C62.5202 46.5089 62.3038 46.6833 62.1306 46.8946C61.9516 47.1151 61.8138 47.3648 61.7223 47.6323C61.6231 47.9186 61.5738 48.2196 61.5758 48.5213C61.561 48.9228 61.6998 49.3152 61.9654 49.6164C62.2497 49.9141 62.6511 50.0716 63.0613 50.0472C63.6358 50.0559 64.1829 49.8013 64.5449 49.3556C64.724 49.1331 64.8627 48.8816 64.9532 48.6111C65.0505 48.3239 65.0998 48.0227 65.0978 47.7187V47.7178Z" fill="#202020"/>
<path d="M70.2993 46.096C70.4971 45.7833 70.7608 45.5178 71.0726 45.318C71.411 45.1124 71.8035 45.0091 72.2 45.0221C72.4882 45.0149 72.7765 45.0654 73.046 45.1696C73.2684 45.2579 73.471 45.3929 73.6393 45.5648C73.7987 45.73 73.9187 45.9289 73.9925 46.146C74.0692 46.3736 74.1086 46.6113 74.1075 46.8515C74.1096 47.0364 74.0929 47.2214 74.0594 47.4033L73.4141 51.0684H71.9874L72.5483 47.8322C72.564 47.7348 72.5788 47.6353 72.5916 47.5349C72.6033 47.4365 72.6102 47.3385 72.6102 47.239C72.6142 46.9923 72.5413 46.7502 72.4027 46.5465C72.2167 46.327 71.9324 46.2161 71.6471 46.2507C71.4326 46.2454 71.2192 46.292 71.0264 46.3852C70.8473 46.4745 70.6879 46.5965 70.5561 46.7463C70.4214 46.8986 70.3111 47.07 70.2275 47.2549C70.1429 47.4389 70.0839 47.6325 70.0504 47.8313L69.4778 51.0674H68.0532L68.8571 46.4461C68.8895 46.291 68.923 46.0903 68.9555 45.8453C68.9889 45.6004 69.0154 45.3789 69.0351 45.1829H70.3741C70.3662 45.2727 70.3504 45.4145 70.3258 45.6061C70.3014 45.7977 70.2816 45.962 70.2659 46.0998L70.2993 46.096Z" fill="#202020"/>
<path d="M78.0228 46.096C78.2206 45.7833 78.4852 45.5178 78.797 45.318C79.1354 45.1124 79.527 45.0091 79.9245 45.0221C80.2128 45.0149 80.5 45.0654 80.7706 45.1696C80.9929 45.2579 81.1955 45.3929 81.3637 45.5648C81.5232 45.73 81.6432 45.9289 81.717 46.146C81.7936 46.3736 81.8331 46.6113 81.8321 46.8515C81.834 47.0364 81.8173 47.2214 81.7839 47.4033L81.1385 51.0684H79.7139L80.2738 47.8322C80.2905 47.7348 80.3042 47.6353 80.317 47.5349C80.3288 47.4365 80.3358 47.3385 80.3358 47.239C80.3396 46.9923 80.2668 46.7502 80.1282 46.5465C79.9421 46.327 79.6579 46.2161 79.3726 46.2507C79.1581 46.2454 78.9446 46.292 78.7519 46.3852C78.5737 46.4745 78.4133 46.5965 78.2816 46.7463C78.1468 46.8986 78.0365 47.07 77.9529 47.2549C77.8684 47.4389 77.8094 47.6325 77.7758 47.8313L77.2033 51.0674H75.7817L76.5854 46.4461C76.6179 46.291 76.6514 46.0903 76.6838 45.8453C76.7173 45.6004 76.7439 45.3789 76.7635 45.1829H78.1034C78.0955 45.2727 78.0799 45.4145 78.0553 45.6061C78.0307 45.7977 78.011 45.962 77.9943 46.0998L78.0228 46.096Z" fill="#202020"/>
<path d="M84.9552 48.5724C84.9473 48.6165 84.9424 48.6617 84.9434 48.7064C84.9415 48.8932 84.9807 49.0771 85.0594 49.2462C85.1352 49.4085 85.2454 49.5531 85.3821 49.6693C85.5267 49.7923 85.692 49.8875 85.8701 49.9513C86.0649 50.0224 86.2716 50.0575 86.4791 50.0556C86.8097 50.0656 87.1382 49.9936 87.4353 49.8471C87.7049 49.7034 87.9459 49.5128 88.1476 49.2827L88.9642 50.0556C88.2971 50.8148 87.3311 51.2447 86.3207 51.2322C85.9478 51.2361 85.577 51.176 85.2238 51.054C84.905 50.9441 84.6109 50.7706 84.359 50.5453C84.1111 50.3182 83.9153 50.0402 83.7864 49.7298C83.6429 49.3778 83.5729 49.0003 83.5798 48.6203C83.5759 48.1367 83.6625 47.6564 83.8356 47.205C83.9979 46.7814 84.24 46.3919 84.5488 46.0581C84.8549 45.7305 85.2247 45.4702 85.636 45.2919C86.0689 45.1052 86.5361 45.0116 87.0064 45.0163C87.335 45.0135 87.6626 45.063 87.9755 45.1642C88.2608 45.2555 88.5243 45.4058 88.7487 45.6046C88.973 45.8074 89.1482 46.0591 89.2613 46.3396C89.3892 46.668 89.4512 47.0172 89.4433 47.3693C89.4442 47.5014 89.4315 47.6833 89.4069 47.9144C89.3853 48.1357 89.3479 48.3548 89.2977 48.5714L84.9552 48.5724ZM88.119 47.5427C88.1269 47.4855 88.1329 47.4322 88.1368 47.3831C88.1408 47.3333 88.1427 47.2838 88.1427 47.2357C88.1485 46.9307 88.0266 46.6377 87.8072 46.426C87.5505 46.1931 87.21 46.0729 86.8638 46.0946C86.6287 46.0917 86.3965 46.1368 86.1809 46.2295C85.9852 46.314 85.8062 46.4323 85.6518 46.5788C85.5051 46.716 85.3793 46.8756 85.2799 47.0509C85.1883 47.204 85.1214 47.3712 85.0821 47.5455L88.119 47.5427Z" fill="#202020"/>
<path d="M95.7628 46.8456C95.6427 46.6531 95.4745 46.4946 95.2757 46.3864C95.0573 46.2592 94.8085 46.1944 94.5566 46.1963C94.2684 46.1935 93.983 46.2564 93.7224 46.3802C93.4704 46.5003 93.2462 46.6728 93.0651 46.8841C92.6825 47.3346 92.472 47.9051 92.4709 48.4949C92.4699 48.6927 92.4985 48.8907 92.5565 49.0795C92.6108 49.2615 92.7021 49.4296 92.8241 49.5742C92.9511 49.7216 93.1094 49.8397 93.2875 49.9185C93.498 50.0097 93.7273 50.0544 93.9575 50.0482C94.2634 50.062 94.5684 49.9963 94.8409 49.8575C95.0672 49.7298 95.2738 49.5702 95.4558 49.3864L96.2733 50.2178C95.9694 50.5212 95.6142 50.7705 95.2246 50.952C94.7996 51.1413 94.3382 51.2344 93.872 51.2249C93.4804 51.2297 93.0907 51.1677 92.7208 51.0409C92.3922 50.9285 92.0892 50.7519 91.8306 50.5193C91.5845 50.297 91.3888 50.0228 91.2579 49.7167C91.1212 49.3873 91.0543 49.0324 91.0602 48.6751C91.0602 48.2058 91.1467 47.74 91.3171 47.3018C91.4812 46.871 91.7252 46.4739 92.0351 46.1315C92.3509 45.7871 92.7346 45.5129 93.1626 45.3232C93.625 45.1204 94.1257 45.019 94.6304 45.0268C95.0584 45.0249 95.4823 45.1065 95.8798 45.266C96.2567 45.4115 96.5754 45.6761 96.7869 46.0205L95.7628 46.8456Z" fill="#202020"/>
<path d="M97.5649 46.3504L97.7715 45.1742H98.7829L99.0799 43.4576H100.494L100.197 45.1742H101.513L101.309 46.3504H100.014L99.5021 49.1015C99.4784 49.2139 99.4666 49.3286 99.4657 49.443C99.4459 49.612 99.5177 49.7782 99.6546 49.8804C99.807 49.9693 99.9831 50.0116 100.159 50.0025C100.255 50.0025 100.35 49.9957 100.446 49.9818C100.533 49.9693 100.621 49.9515 100.707 49.9299L100.622 51.0168C100.482 51.0697 100.337 51.1091 100.189 51.1326C100.038 51.1605 99.8858 51.1739 99.7322 51.1758C99.2619 51.2215 98.7918 51.0875 98.4159 50.8021C98.1513 50.5437 98.0086 50.1835 98.0254 49.8137C98.0254 49.6994 98.0322 49.5755 98.0441 49.4409C98.0559 49.3152 98.0736 49.1913 98.1002 49.0674L98.5989 46.3407L97.5649 46.3504Z" fill="#202020"/>
<path d="M102.341 51.0615L103.364 45.1785H104.802L103.766 51.0615H102.341ZM105.278 43.1531C105.28 43.386 105.19 43.6114 105.029 43.7799C104.872 43.9548 104.648 44.0532 104.413 44.0494C104.192 44.0541 103.976 43.9754 103.81 43.8289C103.638 43.6675 103.546 43.4384 103.56 43.2035C103.552 42.9605 103.651 42.7252 103.829 42.559C103.994 42.3967 104.218 42.3073 104.45 42.3082C104.676 42.2991 104.895 42.3861 105.052 42.5474C105.211 42.7083 105.292 42.9289 105.279 43.1541L105.278 43.1531Z" fill="#202020"/>
<path d="M108.981 51.0615H107.445L106.299 45.1785H107.798L108.48 49.4925H108.504L110.94 45.1785H112.45L108.981 51.0615Z" fill="#202020"/>
<path d="M112.927 51.0615L113.95 45.1785H115.387L114.353 51.0615H112.927ZM115.864 43.1531C115.866 43.3875 115.775 43.6114 115.613 43.7799C115.457 43.9548 115.233 44.0532 114.998 44.0494C114.777 44.0541 114.561 43.9754 114.395 43.8289C114.223 43.6675 114.131 43.4384 114.146 43.2035C114.138 42.9605 114.236 42.7252 114.414 42.559C114.58 42.3977 114.803 42.3073 115.035 42.3082C115.261 42.2991 115.48 42.3861 115.637 42.5474C115.796 42.7083 115.877 42.9289 115.864 43.1541V43.1531Z" fill="#202020"/>
<path d="M116.766 46.3504L116.973 45.1742H117.984L118.282 43.4576H119.694L119.397 45.1742H120.713L120.506 46.3504H119.214L118.703 49.1015C118.679 49.2139 118.667 49.3287 118.666 49.443C118.647 49.612 118.718 49.7782 118.854 49.8804C119.008 49.9693 119.184 50.0116 119.36 50.0025C119.455 50.0025 119.551 49.9957 119.645 49.9818C119.734 49.9693 119.821 49.9515 119.908 49.9299L119.821 51.0168C119.681 51.0697 119.537 51.1091 119.389 51.1326C119.239 51.1605 119.086 51.1739 118.933 51.1758C118.462 51.2215 117.993 51.0875 117.617 50.8021C117.352 50.5437 117.209 50.1835 117.226 49.8137C117.226 49.6994 117.233 49.5755 117.245 49.4411C117.255 49.3152 117.274 49.1913 117.301 49.0674L117.795 46.3407L116.766 46.3504Z" fill="#202020"/>
<path d="M123.758 52.3354C123.623 52.5774 123.477 52.8122 123.319 53.0395C123.183 53.2373 123.022 53.4145 122.837 53.5669C122.665 53.7085 122.469 53.8186 122.258 53.8915C122.019 53.9702 121.767 54.0077 121.516 54.0024C121.394 54.0024 121.27 53.9958 121.144 53.9837C121.018 53.9712 120.894 53.9496 120.772 53.917L120.955 52.6659C121.044 52.6985 121.135 52.7211 121.228 52.7336C121.316 52.7455 121.403 52.7514 121.491 52.7523C121.722 52.7662 121.949 52.6845 122.119 52.526C122.312 52.3166 122.477 52.0837 122.613 51.8339L123.05 51.0732L121.735 45.1777H123.271L124.025 49.4916H124.05L126.389 45.1777H127.904L123.758 52.3354Z" fill="#202020"/>
<path d="M132.877 45.8394C132.914 45.5945 132.94 45.373 132.955 45.1776H134.296C134.288 45.2669 134.273 45.4105 134.248 45.6065C134.225 45.8038 134.204 45.9662 134.187 46.1002H134.212C134.4 45.8121 134.637 45.5589 134.912 45.3514C135.233 45.1214 135.621 45.0042 136.015 45.0211C136.431 45.0004 136.843 45.1147 137.191 45.3457C137.475 45.5455 137.68 45.8385 137.769 46.1737C138.002 45.8317 138.305 45.5436 138.659 45.3279C139.017 45.1194 139.426 45.0133 139.84 45.022C140.139 45.0152 140.437 45.0643 140.718 45.1695C140.945 45.2583 141.152 45.3927 141.326 45.5652C141.489 45.7285 141.612 45.9278 141.685 46.1463C141.762 46.3735 141.802 46.6117 141.801 46.8515C141.803 47.0363 141.786 47.2212 141.752 47.4032L141.106 51.0684H139.681L140.241 47.8321C140.257 47.7347 140.272 47.6357 140.284 47.5353C140.296 47.4369 140.302 47.3384 140.302 47.239C140.303 47.1113 140.287 46.9834 140.254 46.8596C140.225 46.7433 140.172 46.6343 140.096 46.5397C140.015 46.4455 139.914 46.3697 139.8 46.3193C139.651 46.2583 139.492 46.2289 139.331 46.2338C139.119 46.2299 138.909 46.2812 138.722 46.3813C138.543 46.4787 138.385 46.6074 138.252 46.762C138.117 46.9176 138.008 47.0925 137.929 47.2823C137.851 47.4652 137.794 47.6573 137.759 47.8528L137.199 51.0644H135.761L136.382 47.5055C136.405 47.3975 136.417 47.2865 136.418 47.1752C136.429 46.9292 136.35 46.6881 136.199 46.4946C136.024 46.3068 135.772 46.2092 135.516 46.2308C135.311 46.227 135.106 46.2761 134.923 46.3726C134.751 46.4637 134.596 46.5867 134.467 46.7338C134.333 46.886 134.225 47.0579 134.143 47.2428C134.06 47.4292 134 47.6247 133.967 47.8254L133.394 51.0616H131.969L132.772 46.4402C132.805 46.2852 132.84 46.0843 132.877 45.8394Z" fill="#202020"/>
<path d="M147.564 47.3384C147.58 47.2399 147.59 47.1665 147.595 47.1121C147.6 47.0588 147.601 47.009 147.601 46.9599C147.623 46.7217 147.519 46.4887 147.327 46.3461C147.08 46.2083 146.799 46.1444 146.516 46.1631C146.214 46.166 145.915 46.2223 145.633 46.3284C145.345 46.4306 145.071 46.5733 144.822 46.752L144.274 45.7832C144.623 45.5383 145.007 45.3505 145.414 45.2256C145.838 45.0925 146.279 45.0258 146.724 45.0277C147.001 45.0277 147.276 45.0584 147.547 45.1194C147.805 45.1742 148.053 45.2746 148.276 45.4162C148.491 45.554 148.669 45.7409 148.795 45.9624C148.934 46.2189 149.003 46.5094 148.993 46.8014C148.993 46.875 148.993 46.9656 148.981 47.0708C148.974 47.1655 148.962 47.2596 148.944 47.3533L148.518 49.7442C148.477 49.9713 148.445 50.2085 148.419 50.4545C148.394 50.6581 148.38 50.8627 148.377 51.0673H147.06C147.062 50.8334 147.087 50.5991 147.134 50.369H147.111C146.639 50.9238 145.937 51.2278 145.21 51.1903C144.997 51.1893 144.784 51.1639 144.576 51.1163C144.365 51.0693 144.163 50.9848 143.983 50.8646C143.801 50.7426 143.651 50.5794 143.544 50.3878C143.422 50.1553 143.364 49.8949 143.374 49.6331C143.355 49.2091 143.491 48.7922 143.758 48.4617C144.026 48.1539 144.366 47.9138 144.747 47.7635C145.181 47.5882 145.639 47.4743 146.105 47.4258C146.589 47.3687 147.076 47.3403 147.564 47.3384ZM147.259 48.3681C146.984 48.3681 146.697 48.3783 146.4 48.3988C146.124 48.4156 145.85 48.4628 145.584 48.5396C145.361 48.5996 145.154 48.7067 144.975 48.8523C144.816 48.9876 144.729 49.1894 144.738 49.3983C144.733 49.5189 144.76 49.639 144.816 49.7476C144.868 49.8388 144.941 49.9166 145.03 49.9737C145.123 50.0323 145.227 50.0736 145.335 50.0957C145.659 50.1625 145.994 50.137 146.304 50.0218C146.487 49.954 146.656 49.8537 146.803 49.7245C146.944 49.5986 147.063 49.4493 147.156 49.2831C147.249 49.1131 147.316 48.9291 147.354 48.738L147.427 48.37L147.259 48.3681Z" fill="#202020"/>
<path d="M156.738 41.8032H158.177L156.544 51.0584H155.193L155.339 50.1266H155.303C155.074 50.4642 154.764 50.7385 154.401 50.9244C154.028 51.1131 153.614 51.2106 153.195 51.2058C152.847 51.2106 152.502 51.1476 152.177 51.0218C151.883 50.9056 151.617 50.7288 151.397 50.5002C151.178 50.2701 151.009 49.9969 150.898 49.6977C150.777 49.3691 150.717 49.02 150.721 48.6689C150.717 48.1848 150.797 47.704 150.959 47.2468C151.106 46.8227 151.331 46.4302 151.622 46.0879C151.903 45.7593 152.249 45.4919 152.639 45.3031C153.044 45.109 153.488 45.0111 153.938 45.0158C154.389 44.9952 154.837 45.0975 155.234 45.3117C155.559 45.5057 155.819 45.79 155.984 46.1291H156.007L156.738 41.8032ZM152.182 48.5008C152.171 48.8961 152.302 49.2827 152.554 49.5886C152.823 49.8907 153.216 50.0531 153.62 50.0281C153.898 50.0291 154.174 49.9671 154.423 49.8452C154.673 49.7245 154.895 49.5541 155.076 49.3447C155.263 49.1252 155.408 48.8745 155.508 48.605C155.614 48.3207 155.668 48.0186 155.666 47.7146C155.682 47.3098 155.537 46.9148 155.265 46.6152C154.98 46.3231 154.584 46.1666 154.176 46.1872C153.892 46.1834 153.61 46.2464 153.354 46.3703C153.11 46.4884 152.895 46.6565 152.72 46.864C152.54 47.0806 152.404 47.3293 152.318 47.5969C152.224 47.889 152.177 48.1958 152.181 48.5027L152.182 48.5008Z" fill="#202020"/>
<path d="M160.434 48.5724C160.425 48.6165 160.421 48.6617 160.422 48.7064C160.42 48.8932 160.459 49.0771 160.537 49.2462C160.614 49.4085 160.724 49.5531 160.861 49.6693C161.005 49.7923 161.171 49.8875 161.349 49.9513C161.543 50.0224 161.75 50.0575 161.958 50.0556C162.288 50.0656 162.617 49.9936 162.914 49.8471C163.183 49.7034 163.425 49.5128 163.627 49.2827L164.444 50.0556C163.777 50.8148 162.811 51.2447 161.8 51.2322C161.427 51.2361 161.056 51.176 160.703 51.054C160.385 50.9441 160.09 50.7706 159.839 50.5453C159.591 50.3182 159.395 50.0402 159.266 49.7298C159.122 49.3778 159.051 49.0003 159.058 48.6203C159.055 48.1367 159.141 47.6564 159.314 47.205C159.476 46.7814 159.718 46.3919 160.027 46.0581C160.333 45.7305 160.703 45.4702 161.115 45.2919C161.547 45.1052 162.015 45.0116 162.485 45.0163C162.814 45.0135 163.14 45.063 163.453 45.1642C163.739 45.2555 164.003 45.4058 164.227 45.6046C164.452 45.8074 164.626 46.0591 164.739 46.3396C164.867 46.668 164.929 47.0172 164.922 47.3693C164.922 47.5014 164.909 47.6833 164.884 47.9144C164.863 48.1357 164.825 48.3548 164.775 48.5714L160.434 48.5724ZM163.598 47.5427C163.605 47.4855 163.611 47.4322 163.615 47.3831C163.619 47.3333 163.621 47.2838 163.621 47.2357C163.627 46.9307 163.505 46.6377 163.286 46.426C163.029 46.1931 162.688 46.0729 162.342 46.0946C162.107 46.0907 161.875 46.1368 161.659 46.2295C161.464 46.314 161.285 46.4323 161.129 46.5788C160.983 46.716 160.858 46.8756 160.758 47.0509C160.667 47.204 160.6 47.3712 160.561 47.5455L163.598 47.5427Z" fill="#202020"/>
<path d="M171.565 48.5724C171.556 48.6165 171.552 48.6617 171.553 48.7064C171.551 48.8932 171.59 49.0771 171.669 49.2462C171.745 49.4085 171.855 49.5531 171.991 49.6693C172.136 49.7923 172.301 49.8875 172.479 49.9513C172.674 50.0224 172.881 50.0575 173.089 50.0556C173.419 50.0656 173.748 49.9936 174.045 49.8471C174.315 49.7034 174.556 49.5128 174.758 49.2827L175.574 50.0556C174.908 50.8148 173.941 51.2447 172.931 51.2322C172.558 51.2361 172.187 51.176 171.834 51.054C171.515 50.9441 171.221 50.7706 170.969 50.5453C170.721 50.3182 170.526 50.0402 170.397 49.7298C170.253 49.3778 170.182 49.0003 170.189 48.6203C170.185 48.1367 170.272 47.6564 170.445 47.205C170.607 46.7814 170.849 46.3919 171.158 46.0581C171.464 45.7305 171.834 45.4702 172.246 45.2919C172.678 45.1052 173.145 45.0116 173.616 45.0163C173.944 45.0135 174.271 45.063 174.584 45.1642C174.87 45.2555 175.134 45.4058 175.358 45.6046C175.582 45.8074 175.758 46.0591 175.87 46.3396C175.997 46.668 176.059 47.0172 176.053 47.3693C176.053 47.5014 176.04 47.6833 176.015 47.9144C175.994 48.1357 175.956 48.3548 175.906 48.5714L171.565 48.5724ZM174.728 47.5427C174.736 47.4855 174.742 47.4322 174.746 47.3831C174.75 47.3333 174.753 47.2838 174.753 47.2357C174.759 46.9307 174.638 46.6377 174.418 46.426C174.161 46.1931 173.82 46.0729 173.474 46.0946C173.24 46.0907 173.007 46.1368 172.791 46.2295C172.597 46.314 172.417 46.4323 172.262 46.5788C172.115 46.716 171.99 46.8756 171.89 47.0509C171.799 47.204 171.732 47.3712 171.692 47.5455L174.728 47.5427Z" fill="#202020"/>
<path d="M181.616 47.3384C181.631 47.2399 181.642 47.1665 181.646 47.1121C181.65 47.0588 181.652 47.009 181.652 46.9599C181.675 46.7207 181.57 46.4887 181.378 46.3461C181.132 46.2083 180.85 46.1444 180.569 46.1631C180.267 46.166 179.968 46.2223 179.684 46.3284C179.396 46.4306 179.124 46.5733 178.875 46.752L178.326 45.7832C178.674 45.5383 179.059 45.3505 179.465 45.2256C179.889 45.0925 180.331 45.0258 180.775 45.0277C181.052 45.0277 181.328 45.0584 181.598 45.1194C181.857 45.1742 182.104 45.2746 182.329 45.4162C182.542 45.554 182.719 45.7409 182.845 45.9624C182.984 46.2189 183.053 46.5094 183.043 46.8014C183.043 46.875 183.043 46.9656 183.031 47.0708C183.024 47.1655 183.013 47.2596 182.995 47.3533L182.569 49.7442C182.528 49.9713 182.495 50.2085 182.469 50.4545C182.444 50.6581 182.43 50.8627 182.427 51.0673H181.111C181.113 50.8334 181.137 50.5991 181.185 50.369H181.16C180.689 50.9238 179.986 51.2278 179.259 51.1903C179.046 51.1893 178.833 51.1639 178.626 51.1163C178.414 51.0693 178.214 50.9848 178.033 50.8646C177.851 50.7426 177.7 50.5794 177.594 50.3878C177.473 50.1553 177.414 49.8949 177.424 49.6331C177.404 49.2091 177.541 48.7922 177.807 48.4617C178.076 48.1539 178.415 47.9138 178.796 47.7635C179.231 47.5882 179.688 47.4752 180.155 47.4258C180.64 47.3687 181.128 47.3403 181.616 47.3384ZM181.311 48.3681C181.035 48.3681 180.749 48.3783 180.452 48.3988C180.175 48.4156 179.902 48.4628 179.635 48.5396C179.413 48.5996 179.205 48.7067 179.026 48.8523C178.868 48.9876 178.78 49.1894 178.789 49.3983C178.784 49.5189 178.812 49.639 178.868 49.7476C178.919 49.8388 178.993 49.9166 179.081 49.9737C179.175 50.0323 179.278 50.0736 179.386 50.0957C179.709 50.1625 180.044 50.137 180.354 50.0218C180.537 49.954 180.707 49.8537 180.853 49.7245C180.995 49.5986 181.115 49.4493 181.207 49.2831C181.301 49.1131 181.368 48.9291 181.405 48.738L181.478 48.37L181.311 48.3681Z" fill="#202020"/>
<path d="M185.259 49.3688C185.378 49.6027 185.568 49.7939 185.801 49.9139C186.047 50.0426 186.321 50.1076 186.599 50.1036C186.878 50.1176 187.156 50.0484 187.397 49.9058C187.585 49.793 187.698 49.5864 187.693 49.3669C187.706 49.1782 187.615 48.9971 187.456 48.8939C187.216 48.7559 186.96 48.6469 186.694 48.5692C186.448 48.4904 186.206 48.3981 185.97 48.2925C185.78 48.2114 185.606 48.099 185.452 47.962C185.318 47.8411 185.212 47.6927 185.141 47.5265C185.07 47.3434 185.037 47.148 185.043 46.9511C185.041 46.6768 185.108 46.406 185.24 46.1663C185.373 45.9252 185.556 45.7167 185.776 45.5534C186.019 45.3743 186.291 45.2408 186.58 45.1582C186.908 45.0606 187.249 45.013 187.592 45.0174C188.017 45.0111 188.439 45.0972 188.828 45.2681C189.19 45.4285 189.494 45.6961 189.699 46.0342L188.591 46.6956C188.484 46.5313 188.342 46.3916 188.177 46.2853C187.966 46.1653 187.726 46.1072 187.484 46.1187C187.359 46.1197 187.235 46.1317 187.112 46.1562C186.995 46.1778 186.883 46.2172 186.778 46.2724C186.683 46.3234 186.601 46.3973 186.54 46.4866C186.477 46.5851 186.445 46.7013 186.449 46.8184C186.441 46.9914 186.533 47.1537 186.686 47.2354C186.909 47.3506 187.144 47.441 187.387 47.5049C187.85 47.6201 188.282 47.8352 188.653 48.1373C188.965 48.4284 189.13 48.8444 189.104 49.2703C189.11 49.5714 189.039 49.8693 188.896 50.1349C188.759 50.3828 188.569 50.5984 188.341 50.7664C188.099 50.9428 187.827 51.0743 187.537 51.1532C187.223 51.2396 186.896 51.2828 186.569 51.2809C186.039 51.3058 185.512 51.1886 185.041 50.9447C184.68 50.7438 184.376 50.4548 184.156 50.1036L185.259 49.3688Z" fill="#202020"/>
<path d="M192.934 52.3354C192.799 52.5774 192.653 52.8122 192.495 53.0395C192.359 53.2364 192.197 53.4145 192.013 53.5669C191.84 53.7085 191.645 53.8186 191.434 53.8915C191.195 53.9702 190.943 54.0077 190.692 54.0024C190.569 54.0024 190.445 53.9958 190.32 53.9837C190.194 53.9712 190.07 53.9496 189.948 53.917L190.131 52.6659C190.219 52.6985 190.311 52.7211 190.404 52.7336C190.491 52.7455 190.578 52.7514 190.666 52.7523C190.897 52.7662 191.124 52.6845 191.294 52.526C191.486 52.3166 191.653 52.0847 191.787 51.8339L192.226 51.0732L190.911 45.1777H192.447L193.201 49.4916H193.226L195.565 45.1777H197.076L192.934 52.3354Z" fill="#202020"/>
</svg>
